<svg width="206" height="47" viewBox="0 0 206 47" fill="none" xmlns="http://www.w3.org/2000/svg">
<path d="M19.264 19.504C23.68 13.68 26.56 9.968 34.88 1.328L22.08 1.264C23.232 2.736 24 4.4 24.32 6.256C24.32 6.768 24.128 7.344 23.488 8.048C16.896 15.856 11.584 20.912 11.2 21.296V8.56C11.2 8.56 11.2 4.976 13.568 1.264H0.96C3.264 3.952 3.328 7.92 3.328 8.496V38.576C3.328 39.216 3.328 43.184 0.96 45.872H13.568C11.2 42.16 11.2 38.576 11.2 38.576V23.792C13.312 27.056 24.064 43.12 27.776 44.912C29.76 45.936 32.192 46.192 34.304 46.192C36.8 46.192 38.784 45.808 38.784 45.808C29.952 38.896 19.264 19.504 19.264 19.504ZM64.7045 1.264C66.4325 3.696 66.8805 7.472 66.8805 8.368C66.8805 8.368 66.8805 27.184 66.8805 31.152C66.8805 35.12 66.2405 41.84 60.9285 41.84C55.8085 41.84 49.5365 38.704 49.5365 30.832C49.5365 23.024 49.4085 15.984 49.3445 8.56C49.3445 8.56 49.3445 4.976 51.6485 1.264H37.8885C40.1925 3.952 40.1925 7.984 40.2565 8.496V29.808C40.4485 38.448 43.3285 46.64 56.6405 46.64C70.7845 46.64 73.2805 35.632 73.2805 30.96C73.2805 26.352 73.2805 8.56 73.2805 8.56C73.2805 8.56 73.2805 4.976 75.4565 1.264H64.7045ZM94.831 19.696C89.071 15.472 83.183 10.096 83.183 7.92C83.183 6.384 84.399 6 86.255 6C92.847 6 97.775 10.48 102.063 13.936L105.647 4.144C103.727 2.416 99.887 0.431999 92.911 0.431999C82.415 0.431999 77.231 6.32 77.231 12.016C77.231 17.52 81.775 21.104 88.175 26.096C94.767 31.408 101.231 36.784 101.231 39.664C101.231 40.944 100.143 41.712 97.583 41.712C90.287 41.712 85.743 37.424 82.991 33.008L75.695 40.816C79.471 45.04 84.271 46.704 91.823 46.704C101.743 46.704 108.399 40.304 108.399 34.672C108.399 28.592 101.167 24.368 94.831 19.696ZM120.2 8.56C120.2 8.56 120.2 4.976 122.568 1.264H109.96C112.264 3.952 112.328 7.92 112.328 8.56V38.64C112.328 39.216 112.264 43.184 109.96 45.872H122.568C120.2 42.16 120.2 38.576 120.2 38.576V8.56ZM152.617 1.264C154.217 3.952 154.857 6.064 154.857 10.224V32.048L133.481 1.264H124.713C126.249 3.952 126.953 6.064 126.953 10.224V36.912C126.953 41.072 126.249 43.184 124.713 45.872H134.569C133.033 43.184 132.265 41.072 132.265 36.912V15.472L151.401 42.032C153.449 45.296 156.457 46.832 160.297 46.704V9.84C160.297 6.128 161.001 3.952 162.537 1.264H152.617ZM205.099 45.872C201.323 42.992 199.339 36.656 197.291 31.728L185.899 0.495998H178.795C179.115 1.52 179.243 2.352 179.243 3.312C179.243 4.784 178.859 6.384 177.899 8.944L168.363 36.912C166.827 41.072 165.291 43.184 162.73 45.872H173.995C173.163 44.72 172.779 43.632 172.779 42.416C172.779 40.944 173.291 39.216 173.995 36.912L175.083 32.816H188.971C188.971 32.816 190.635 36.336 191.723 40.368C192.171 42.352 191.659 44.144 190.123 45.872H205.099ZM176.555 28.528L181.867 14.064L187.435 28.592L176.555 28.528Z" fill="#E85D04"/>
</svg>
