<svg width="31" height="29" viewBox="0 0 31 29" fill="none" xmlns="http://www.w3.org/2000/svg">
<path d="M6.10217 9.09684L6.92333 8.28789C7.83924 7.40263 9.35523 7.40263 10.3027 8.34895L10.3343 8.39474C11.1081 9.15789 12.1345 9.52421 13.2557 9.63105C14.7875 9.76842 16.2719 10.5621 17.251 11.9968C18.3248 13.6453 18.309 15.8432 17.1878 17.4763C15.2929 20.3 11.3292 20.6053 9.00782 18.3158C8.12349 17.4763 7.61816 16.3926 7.49183 15.2632C7.3655 14.1489 6.90754 13.0958 6.10217 12.3174C5.18626 11.4474 5.18626 9.98211 6.10217 9.09684ZM12.7346 21.3684C10.887 21.3684 9.16574 20.6816 7.88662 19.4147C6.78121 18.3158 6.08638 16.9421 5.91268 15.4463C5.8653 14.9884 5.72318 14.3932 5.34418 13.8437C4.39669 15.1105 3.82819 16.6368 3.82819 18.3158C3.82819 20.8189 5.09152 23.0321 7.03388 24.4211H27.5155V22.8947C27.5155 17.4 23.7413 12.7447 18.5775 11.2184C19.9829 13.3553 19.9514 16.2095 18.5143 18.3158C17.251 20.2237 15.0718 21.3684 12.7346 21.3684ZM20.8515 8.48632H22.857C24.2309 8.48632 25.431 9.41737 25.431 11.0811V12.2105H27.405V10.6842C27.405 8.39474 25.3047 6.65474 22.857 6.65474H20.8515C19.5408 6.65474 18.4196 5.40316 18.4196 4.12105C18.4196 2.83895 19.5408 1.89263 20.8515 1.89263V0C18.4196 0 16.4614 1.89263 16.4614 4.24316C16.4614 6.59368 18.4196 8.48632 20.8515 8.48632ZM4.61777 8.47105C4.71252 8.31842 4.83885 8.16579 4.98097 8.01316L5.80213 7.21947C5.94426 7.08211 6.10217 6.97526 6.26009 6.86842L4.03348 4.68579C4.25456 4.27368 4.1756 3.73947 3.82819 3.38842C3.35444 2.94579 2.59645 2.94579 2.13849 3.38842C1.91741 3.6021 1.80687 3.86158 1.79108 4.13632C1.50683 4.15158 1.23838 4.25842 1.01729 4.47211C0.559339 4.91474 0.559339 5.64737 1.01729 6.10526C1.3805 6.44105 1.91741 6.51737 2.35958 6.30368L4.61777 8.47105ZM26.5522 3.64789C27.3576 2.86947 27.8629 1.81632 27.8629 0.641053H25.889C25.889 1.90789 24.7836 2.97632 23.4729 2.97632V4.86895C26.4101 4.86895 28.7157 7.18895 28.7157 10.0279V13.7368H30.6738V10.0279C30.6738 7.20421 28.9999 4.77737 26.5522 3.64789ZM5.40735 29H27.5155C29.2684 29 30.6738 27.6416 30.6738 25.9474H2.24904C2.24904 27.6416 3.67028 29 5.40735 29Z" fill="#F48C06"/>
</svg>
