<svg width="26" height="25" viewBox="0 0 26 25" fill="none" xmlns="http://www.w3.org/2000/svg">
<path d="M18.281 9.98809C18.9112 9.19878 19.3301 8.26208 19.4985 7.26618C19.6668 6.27027 19.5789 5.24791 19.2431 4.29533C18.9074 3.34275 18.3347 2.49128 17.5791 1.82107C16.8234 1.15085 15.9097 0.683944 14.9238 0.464286C14.5007 0.376116 14.0702 0.328282 13.6381 0.321429C12.5953 0.323542 11.5713 0.599581 10.6688 1.12191C9.76618 1.64423 9.01666 2.39451 8.49526 3.29762L18.8524 13.631C18.7276 13.4601 18.5924 13.2971 18.4476 13.1429C18.039 12.7283 17.7964 12.1784 17.7657 11.5971C17.735 11.0158 17.9183 10.4434 18.281 9.98809ZM14.8286 6.27381C14.5931 6.27381 14.363 6.20399 14.1672 6.07318C13.9714 5.94237 13.8188 5.75644 13.7287 5.53891C13.6386 5.32138 13.6151 5.08201 13.661 4.85108C13.7069 4.62015 13.8203 4.40803 13.9868 4.24154C14.1533 4.07505 14.3654 3.96167 14.5963 3.91573C14.8273 3.8698 15.0666 3.89337 15.2842 3.98348C15.5017 4.07358 15.6876 4.22617 15.8184 4.42194C15.9492 4.61771 16.0191 4.84788 16.0191 5.08333C16.0191 5.39907 15.8936 5.70187 15.6704 5.92513C15.4471 6.14838 15.1443 6.27381 14.8286 6.27381ZM7.68573 5.54762L2.19764 0L0.673828 1.5119L8.63811 9.47619C8.75716 9.65476 8.87621 9.84524 9.00716 9.98809C9.35821 10.4348 9.53796 10.9923 9.51394 11.5599C9.48993 12.1276 9.26373 12.6679 8.87621 13.0833C8.08007 13.9251 7.52154 14.963 7.25763 16.0911C6.99372 17.2193 7.03388 18.3972 7.37401 19.5048C7.71415 20.6123 8.34207 21.6098 9.19368 22.3953C10.0453 23.1809 11.0901 23.7264 12.2214 23.9762C12.6865 24.0799 13.1616 24.1318 13.6381 24.131C14.883 24.1382 16.1042 23.7904 17.1584 23.1283C18.2127 22.4663 19.0563 21.5173 19.5905 20.3929L24.1976 25L25.7095 23.4881M12.4476 19.369C12.2122 19.369 11.982 19.2992 11.7862 19.1684C11.5905 19.0376 11.4379 18.8517 11.3478 18.6341C11.2577 18.4166 11.2341 18.1773 11.28 17.9463C11.326 17.7154 11.4394 17.5033 11.6058 17.3368C11.7723 17.1703 11.9845 17.0569 12.2154 17.011C12.4463 16.965 12.6857 16.9886 12.9032 17.0787C13.1207 17.1688 13.3067 17.3214 13.4375 17.5172C13.5683 17.713 13.6381 17.9431 13.6381 18.1786C13.6381 18.4943 13.5127 18.7971 13.2894 19.0204C13.0662 19.2436 12.7634 19.369 12.4476 19.369ZM16.0191 20.5595C15.7836 20.5595 15.5534 20.4897 15.3577 20.3589C15.1619 20.2281 15.0093 20.0422 14.9192 19.8246C14.8291 19.6071 14.8055 19.3677 14.8515 19.1368C14.8974 18.9059 15.0108 18.6937 15.1773 18.5273C15.3438 18.3608 15.5559 18.2474 15.7868 18.2014C16.0177 18.1555 16.2571 18.1791 16.4746 18.2692C16.6922 18.3593 16.8781 18.5119 17.0089 18.7077C17.1397 18.9034 17.2095 19.1336 17.2095 19.369C17.2095 19.6848 17.0841 19.9876 16.8609 20.2108C16.6376 20.4341 16.3348 20.5595 16.0191 20.5595ZM14.8286 16.9881C14.5129 16.9881 14.2101 16.8627 13.9868 16.6394C13.7635 16.4162 13.6381 16.1134 13.6381 15.7976C13.6381 15.6257 13.6753 15.4558 13.7473 15.2996C13.8192 15.1434 13.9241 15.0046 14.0548 14.8929L15.7334 16.5714C15.6216 16.7021 15.4828 16.807 15.3266 16.8789C15.1705 16.9509 15.0005 16.9881 14.8286 16.9881Z" fill="#61636D"/>
</svg>
