<svg width="25" height="28" viewBox="0 0 25 28" fill="none" xmlns="http://www.w3.org/2000/svg">
<path d="M24.6738 6C24.6738 8.57333 22.5805 10.6667 20.0072 10.6667C17.4338 10.6667 15.3405 8.57333 15.3405 6C15.3405 3.42667 17.4338 1.33333 20.0072 1.33333C22.5805 1.33333 24.6738 3.42667 24.6738 6ZM22.0072 13.0533C21.3405 13.2267 20.6738 13.3333 20.0072 13.3333C15.9672 13.3333 12.6738 10.04 12.6738 6C12.6738 4.04 13.4472 2.26667 14.6738 0.946667C14.2072 0.373333 13.4872 0 12.6738 0C11.2072 0 10.0072 1.2 10.0072 2.66667V3.05333C6.04716 4.22667 3.3405 7.86667 3.3405 12V20L0.673828 22.6667V24H24.6738V22.6667L22.0072 20V13.0533ZM12.6738 28C14.1538 28 15.3405 26.8133 15.3405 25.3333H10.0072C10.0072 26.8133 11.2072 28 12.6738 28Z" fill="#F48C06"/>
</svg>
