<svg width="18" height="19" viewBox="0 0 18 19" fill="none" xmlns="http://www.w3.org/2000/svg">
<path d="M7 0.75C8.72391 0.75 10.3772 1.43482 11.5962 2.65381C12.8152 3.87279 13.5 5.52609 13.5 7.25C13.5 8.86 12.91 10.34 11.94 11.48L12.21 11.75H13L18 16.75L16.5 18.25L11.5 13.25V12.46L11.23 12.19C10.09 13.16 8.61 13.75 7 13.75C5.27609 13.75 3.62279 13.0652 2.40381 11.8462C1.18482 10.6272 0.5 8.97391 0.5 7.25C0.5 5.52609 1.18482 3.87279 2.40381 2.65381C3.62279 1.43482 5.27609 0.75 7 0.75ZM7 2.75C4.5 2.75 2.5 4.75 2.5 7.25C2.5 9.75 4.5 11.75 7 11.75C9.5 11.75 11.5 9.75 11.5 7.25C11.5 4.75 9.5 2.75 7 2.75Z" fill="#61636D"/>
</svg>
