<svg width="26" height="26" viewBox="0 0 26 26" fill="none" xmlns="http://www.w3.org/2000/svg">
<path d="M13.3576 17.55C12.1509 17.55 10.9936 17.0706 10.1403 16.2173C9.28698 15.364 8.8076 14.2067 8.8076 13C8.8076 11.7933 9.28698 10.636 10.1403 9.78266C10.9936 8.92937 12.1509 8.45 13.3576 8.45C14.5643 8.45 15.7216 8.92937 16.5749 9.78266C17.4282 10.636 17.9076 11.7933 17.9076 13C17.9076 14.2067 17.4282 15.364 16.5749 16.2173C15.7216 17.0706 14.5643 17.55 13.3576 17.55ZM23.0166 14.261C23.0686 13.845 23.1076 13.429 23.1076 13C23.1076 12.571 23.0686 12.142 23.0166 11.7L25.7596 9.581C26.0066 9.386 26.0716 9.035 25.9156 8.749L23.3156 4.251C23.1596 3.965 22.8086 3.848 22.5226 3.965L19.2856 5.265C18.6096 4.758 17.9076 4.316 17.0886 3.991L16.6076 0.546C16.5556 0.234 16.2826 0 15.9576 0H10.7576C10.4326 0 10.1596 0.234 10.1076 0.546L9.6266 3.991C8.8076 4.316 8.1056 4.758 7.4296 5.265L4.1926 3.965C3.9066 3.848 3.5556 3.965 3.3996 4.251L0.799604 8.749C0.630604 9.035 0.708604 9.386 0.955604 9.581L3.6986 11.7C3.6466 12.142 3.6076 12.571 3.6076 13C3.6076 13.429 3.6466 13.845 3.6986 14.261L0.955604 16.419C0.708604 16.614 0.630604 16.965 0.799604 17.251L3.3996 21.749C3.5556 22.035 3.9066 22.139 4.1926 22.035L7.4296 20.722C8.1056 21.242 8.8076 21.684 9.6266 22.009L10.1076 25.454C10.1596 25.766 10.4326 26 10.7576 26H15.9576C16.2826 26 16.5556 25.766 16.6076 25.454L17.0886 22.009C17.9076 21.671 18.6096 21.242 19.2856 20.722L22.5226 22.035C22.8086 22.139 23.1596 22.035 23.3156 21.749L25.9156 17.251C26.0716 16.965 26.0066 16.614 25.7596 16.419L23.0166 14.261Z" fill="#61636D"/>
</svg>
